<?xml version="1.0" standalone="no"?>
<!DOCTYPE svg PUBLIC "-//W3C//DTD SVG 20010904//EN"
 "http://www.w3.org/TR/2001/REC-SVG-20010904/DTD/svg10.dtd">
<svg version="1.0" xmlns="http://www.w3.org/2000/svg"
 width="278.000000pt" height="191.000000pt" viewBox="0 0 278.000000 191.000000"
 preserveAspectRatio="xMidYMid meet">

<g transform="translate(0.000000,191.000000) scale(0.100000,-0.100000)"
fill="#000000" stroke="none">
<path d="M969 1553 c-330 -467 -414 -586 -546 -778 -222 -325 -383 -565 -383
-570 0 -3 30 -5 67 -3 l67 3 209 300 c247 355 515 732 694 975 l129 175 125 6
c72 4 225 23 369 48 237 40 491 90 499 97 2 2 -232 4 -522 4 l-526 0 -182
-257z"/>
<path d="M2658 1773 c7 -3 16 -2 19 1 4 3 -2 6 -13 5 -11 0 -14 -3 -6 -6z"/>
<path d="M2547 1763 c-33 -4 -41 -9 -54 -41 -8 -20 -73 -161 -143 -312 -70
-151 -173 -372 -227 -490 -55 -118 -140 -302 -189 -407 l-89 -193 -335 0 -335
0 -364 -52 c-214 -31 -356 -55 -345 -59 11 -4 346 -8 745 -8 l726 -1 183 413
c177 398 470 1079 484 1124 4 12 15 24 24 26 20 6 -28 5 -81 0z"/>
<path d="M1327 1459 c-227 -78 -360 -318 -302 -544 61 -234 280 -383 509 -346
176 29 318 159 367 339 68 244 -86 505 -332 561 -72 17 -178 12 -242 -10z
m273 -106 c71 -32 135 -96 172 -171 31 -62 33 -74 33 -167 0 -89 -3 -106 -28
-156 -32 -67 -109 -142 -175 -172 -68 -32 -207 -31 -276 1 -108 49 -181 139
-212 262 -19 75 -10 155 25 231 38 80 132 161 221 190 45 15 191 4 240 -18z"/>
<path d="M1404 1261 c-83 -21 -153 -94 -174 -181 -34 -141 77 -298 218 -308
212 -15 339 231 208 403 -49 64 -173 106 -252 86z m110 -27 c28 -27 17 -39
-11 -13 -16 13 -30 25 -32 27 -2 1 3 2 12 2 8 0 23 -7 31 -16z"/>
</g>
</svg>
